# ProBuilder 5.0.7
# https://unity3d.com/unity/features/worldbuilding/probuilder
# 2026. 06. 21. 17:30:37

mtllib ./Map.mtl
o Map

g Cube
v 80 -2.5 80
v -80 -2.5 80
v 80 -1.5 80
v -80 -1.5 80
v -80 -2.5 -80
v -80 -1.5 -80
v 80 -2.5 -80
v 80 -1.5 -80

vt 80 -0.5
vt -80 -0.5
vt 80 0.5
vt -80 0.5
vt -80 80
vt 80 80
vt -80 -80
vt 80 -80

vn 0 0 1
vn -1 0 0
vn 0 0 -1
vn 1 0 0
vn 0 1 0
vn 0 -1 0

usemtl Prototype_512x512_Grey2
f 3/3/1 4/4/1 2/2/1 1/1/1
f 4/3/2 6/4/2 5/2/2 2/1/2
f 6/3/3 8/4/3 7/2/3 5/1/3
f 8/3/4 3/4/4 1/2/4 7/1/4
f 8/7/5 6/8/5 4/6/5 3/5/5
f 1/6/6 2/5/6 5/7/6 7/8/6

g Cube (5)
v 8.5 -1.5 -32
v 7.5 -1.5 -32
v 8.5 14.5 -32
v 7.5 14.5 -32
v 7.5 -1.5 -80
v 7.5 14.5 -80
v 8.5 -1.5 -80
v 8.5 14.5 -80

vt 0.5 -8
vt -0.5 -8
vt 0.5 8
vt -0.5 8
vt 24 -8
vt -24 -8
vt 24 8
vt -24 8
vt -0.5 24
vt 0.5 24
vt -0.5 -24
vt 0.5 -24

vn 0 0 1
vn -1 0 0
vn 0 0 -1
vn 1 0 0
vn 0 1 0
vn 0 -1 0

usemtl Prototype_512x512_Pink
f 11/11/7 12/12/7 10/10/7 9/9/7
f 12/15/8 14/16/8 13/14/8 10/13/8
f 14/11/9 16/12/9 15/10/9 13/9/9
f 16/15/10 11/16/10 9/14/10 15/13/10
f 16/19/11 14/20/11 12/18/11 11/17/11
f 9/18/12 10/17/12 13/19/12 15/20/12

g Cube (7)
v 8 -1.5 52.5
v -24 -1.5 52.5
v 8 14.5 52.5
v -24 14.5 52.5
v -24 -1.5 51.5
v -24 14.5 51.5
v 8 -1.5 51.5
v 8 14.5 51.5

vt 16 -8
vt -16 -8
vt 16 8
vt -16 8
vt 0.5 -8
vt -0.5 -8
vt 0.5 8
vt -0.5 8
vt -16 0.5
vt 16 0.5
vt -16 -0.5
vt 16 -0.5

vn 0 0 1
vn -1 0 0
vn 0 0 -1
vn 1 0 0
vn 0 1 0
vn 0 -1 0

usemtl Prototype_512x512_Blue2
f 19/23/13 20/24/13 18/22/13 17/21/13
f 20/27/14 22/28/14 21/26/14 18/25/14
f 22/23/15 24/24/15 23/22/15 21/21/15
f 24/27/16 19/28/16 17/26/16 23/25/16
f 24/31/17 22/32/17 20/30/17 19/29/17
f 17/30/18 18/29/18 21/31/18 23/32/18

g Cube (13)
v 8 -1.5 45
v -24 -1.5 45
v 8 0.5 45
v -24 0.5 45
v -24 -1.5 44
v -24 0.5 44
v 8 -1.5 44
v 8 0.5 44

vt 16 -1
vt -16 -1
vt 16 1
vt -16 1
vt 0.5 -1
vt -0.5 -1
vt 0.5 1
vt -0.5 1
vt -16 0.5
vt 16 0.5
vt -16 -0.5
vt 16 -0.5

vn 0 0 1
vn -1 0 0
vn 0 0 -1
vn 1 0 0
vn 0 1 0
vn 0 -1 0

usemtl Prototype_512x512_Blue2
f 27/35/19 28/36/19 26/34/19 25/33/19
f 28/39/20 30/40/20 29/38/20 26/37/20
f 30/35/21 32/36/21 31/34/21 29/33/21
f 32/39/22 27/40/22 25/38/22 31/37/22
f 32/43/23 30/44/23 28/42/23 27/41/23
f 25/42/24 26/41/24 29/43/24 31/44/24

g Cube (8)
v 32 -1.5 24
v 24 -1.5 24
v 32 6.5 24
v 24 6.5 24
v 24 -1.5 16
v 24 6.5 16
v 32 -1.5 16
v 32 6.5 16

vt 4 -4
vt -4 -4
vt 4 4
vt -4 4

vn 0 0 1
vn -1 0 0
vn 0 0 -1
vn 1 0 0
vn 0 1 0
vn 0 -1 0

usemtl Prototype_512x512_Blue2
f 35/47/25 36/48/25 34/46/25 33/45/25
f 36/47/26 38/48/26 37/46/26 34/45/26
f 38/47/27 40/48/27 39/46/27 37/45/27
f 40/47/28 35/48/28 33/46/28 39/45/28
f 40/46/29 38/45/29 36/47/29 35/48/29
f 33/47/30 34/48/30 37/46/30 39/45/30

g Cube (15)
v 80 -1.5 80
v 68 -1.5 80
v 80 12 80
v 68 12 80
v 68 -1.5 56
v 68 -1.5 16
v 68 12 56
v 80 -1.5 16
v 80 -1.5 56
v 80 12 56
v 28 -1.5 56
v 16 -1.5 56
v 28 -1.5 80
v 16 -1.5 80

vt 4 -4
vt -8 -4
vt 4 9.5
vt -8 9.5
vt 36 -4
vt -4 -4
vt 36 9.5
vt 8 -4
vt -4 36
vt -4 37.14762
vt 8 37.14762
vt -4 -5.069083
vt 8 -5.069083
vt 4 36
vt -8 36
vt 4 60
vt -8 60
vt -36 9.5
vt -36 -4
vt -60 9.5
vt -60 -4
vt -48 36
vt -60 36
vt -48 60
vt -60 60
vt 8 36
vt 8 60
vt -4 60
vt 8 9.5
vt 48 -4
vt 60 -4
vt 5.356096 36
vt 5.356096 60
vt 59.07993 36
vt 59.07993 60
vt -48 -4

vn 0 0 1
vn -1 0 0
vn -0.5 0 0
vn 0 0 0
vn 0.5 0 0
vn 1 0 0
vn 0 0.9474923 -0.3197787
vn 0 -1 0
vn 0 1 0
vn 0 0 -1
vn -0.2512851 0.9679131 0
vn 0 0 0.5

usemtl Prototype_512x512_Blue2
f 43/51/31 44/52/31 42/50/31 41/49/31
f 47/55/33 46/54/34 46/54/33 45/53/32
f 46/56/34 48/54/34 48/54/34 46/56/34
f 48/54/35 50/57/36 49/57/35 48/54/34
f 48/60/37 46/61/37 47/59/37 50/58/37
f 49/62/38 45/63/38 46/50/38 48/49/38
f 41/64/38 42/65/38 45/63/38 49/62/38
f 43/68/36 41/69/36 49/67/36 50/66/36
f 53/72/38 54/73/38 52/71/38 51/70/38
f 44/75/39 43/76/39 50/57/39 47/74/39
f 51/78/40 52/79/40 47/77/40 45/56/40
f 53/72/38 51/70/38 45/63/38 42/65/38
f 52/82/41 54/83/41 44/81/41 47/80/41
f 54/69/42 53/84/34 42/50/42 44/52/31

g Cube (14)
v 48 -1.5 -4
v 30 -1.5 -4
v 48 4.5 -4
v 30 4.5 -4
v 16 -1.5 -4
v 16 -1.5 -20
v 30 -1.5 -20
v 48 -1.5 -20
v 30 4.5 -20
v 48 4.5 -20
v 64 -1.5 -20
v 64 -1.5 -4

vt 12 -3
vt -6 -3
vt 12 3
vt -6 3
vt 20 8
vt 20 -8
vt 6 -3
vt -12 -3
vt 6 3
vt -12 3
vt -28 -8
vt -28 8
vt -12 8
vt 6 8
vt -12 -8
vt 6 -8
vt 12 -8
vt -6 -8
vt 12 8
vt -6 8
vt -20 8
vt -20 -8
vt -20 -3
vt 20 -3
vt 4.333112 -8
vt 4.333112 8
vt 19.56466 -8
vt 19.56466 8
vt 28 -8
vt 28 8
vt -28 -3
vt 28 -3
vt -10.18258 8
vt -10.18258 -8
vt -27.27059 8
vt -27.27059 -8

vn 0 0 1
vn 0 0 0
vn 0 0 -1
vn 0 1 0
vn 0 -1 0
vn 0 0 0.5
vn 0 0 -0.5
vn -0.3939193 0.919145 0
vn 0.3511235 0.9363292 0

usemtl Prototype_512x512_Yellow
f 57/87/43 58/88/43 56/86/43 55/85/43
f 59/89/44 60/90/44 60/90/44 59/89/44
f 63/93/45 64/94/45 62/92/45 61/91/45
f 65/95/44 66/96/44 66/96/44 65/95/44
f 64/99/46 63/100/46 58/98/46 57/97/46
f 55/103/47 56/104/47 61/102/47 62/101/47
f 59/105/47 60/106/47 61/102/47 56/104/47
f 59/107/48 59/107/44 56/86/48 58/88/43
f 60/108/49 60/108/44 63/93/49 61/91/45
f 60/111/50 59/112/50 58/110/50 63/109/50
f 65/113/47 66/114/47 55/103/47 62/101/47
f 65/115/49 65/115/44 62/92/49 64/94/45
f 66/116/48 66/116/44 57/87/48 55/85/43
f 66/119/51 65/120/51 64/118/51 57/117/51

g Cube (12)
v -44 -1.5 28
v -60 -1.5 28
v -44 14.5 28
v -60 14.5 28
v -60 -1.5 12
v -60 14.5 12
v -44 -1.5 12
v -44 14.5 12

vt 8 -8
vt -8 -8
vt 8 8
vt -8 8

vn 0 0 1
vn -1 0 0
vn 0 0 -1
vn 1 0 0
vn 0 1 0
vn 0 -1 0

usemtl Prototype_512x512_Blue2
f 69/123/52 70/124/52 68/122/52 67/121/52
f 70/123/53 72/124/53 71/122/53 68/121/53
f 72/123/54 74/124/54 73/122/54 71/121/54
f 74/123/55 69/124/55 67/122/55 73/121/55
f 74/122/56 72/121/56 70/123/56 69/124/56
f 67/123/57 68/124/57 71/122/57 73/121/57

g Cube (10)
v 33.19121 6.5 22.24751
v 25.75249 6.5 25.19121
v 33.19121 14.5 22.24751
v 25.75249 14.5 25.19121
v 22.80879 6.5 17.75249
v 22.80879 14.5 17.75249
v 30.24751 6.5 14.80879
v 30.24751 14.5 14.80879

vt 4 -4
vt -4 -4
vt 4 4
vt -4 4

vn 0.3679623 0 0.9298407
vn -0.9298407 0 0.3679623
vn -0.3679623 0 -0.9298407
vn 0.9298407 0 -0.3679623
vn 0 1 0
vn 0 -1 0

usemtl Prototype_512x512_Blue2
f 77/127/58 78/128/58 76/126/58 75/125/58
f 78/127/59 80/128/59 79/126/59 76/125/59
f 80/127/60 82/128/60 81/126/60 79/125/60
f 82/127/61 77/128/61 75/126/61 81/125/61
f 82/126/62 80/125/62 78/127/62 77/128/62
f 75/127/63 76/128/63 79/126/63 81/125/63

g Cube (11)
v 33.29306 14.5 18.00414
v 29.99586 14.5 25.29306
v 33.29306 22.5 18.00414
v 29.99586 22.5 25.29306
v 22.70694 14.5 21.99586
v 22.70694 22.5 21.99586
v 26.00414 14.5 14.70693
v 26.00414 22.5 14.70693

vt 4 -4
vt -4 -4
vt 4 4
vt -4 4

vn 0.9111158 0 0.4121504
vn -0.4121504 0 0.9111158
vn -0.9111158 0 -0.4121504
vn 0.4121504 0 -0.9111158
vn 0 1 0
vn 0 -1 0

usemtl Prototype_512x512_Blue2
f 85/131/64 86/132/64 84/130/64 83/129/64
f 86/131/65 88/132/65 87/130/65 84/129/65
f 88/131/66 90/132/66 89/130/66 87/129/66
f 90/131/67 85/132/67 83/130/67 89/129/67
f 90/130/68 88/129/68 86/131/68 85/132/68
f 83/131/69 84/132/69 87/130/69 89/129/69

g Cube (9)
v -23.5 -1.5 -6
v -24.5 -1.5 -6
v -23.5 0.5 -6
v -24.5 0.5 -6
v -24.5 -1.5 -10
v -24.5 0.5 -10
v -23.5 -1.5 -10
v -23.5 0.5 -10

vt 0.5 -1
vt -0.5 -1
vt 0.5 1
vt -0.5 1
vt 2 -1
vt -2 -1
vt 2 1
vt -2 1
vt -0.5 2
vt 0.5 2
vt -0.5 -2
vt 0.5 -2

vn 0 0 1
vn -1 0 0
vn 0 0 -1
vn 1 0 0
vn 0 1 0
vn 0 -1 0

usemtl Prototype_512x512_Blue2
f 93/135/70 94/136/70 92/134/70 91/133/70
f 94/139/71 96/140/71 95/138/71 92/137/71
f 96/135/72 98/136/72 97/134/72 95/133/72
f 98/139/73 93/140/73 91/138/73 97/137/73
f 98/143/74 96/144/74 94/142/74 93/141/74
f 91/142/75 92/141/75 95/143/75 97/144/75

g Cube (6)
v -7.5 -1.5 -32
v -8.5 -1.5 -32
v -7.5 14.5 -32
v -8.5 14.5 -32
v -8.5 -1.5 -80
v -8.5 14.5 -80
v -7.5 -1.5 -80
v -7.5 14.5 -80

vt 0.5 -8
vt -0.5 -8
vt 0.5 8
vt -0.5 8
vt 24 -8
vt -24 -8
vt 24 8
vt -24 8
vt -0.5 24
vt 0.5 24
vt -0.5 -24
vt 0.5 -24

vn 0 0 1
vn -1 0 0
vn 0 0 -1
vn 1 0 0
vn 0 1 0
vn 0 -1 0

usemtl Prototype_512x512_Pink
f 101/147/76 102/148/76 100/146/76 99/145/76
f 102/151/77 104/152/77 103/150/77 100/149/77
f 104/147/78 106/148/78 105/146/78 103/145/78
f 106/151/79 101/152/79 99/150/79 105/149/79
f 106/155/80 104/156/80 102/154/80 101/153/80
f 99/154/81 100/153/81 103/155/81 105/156/81

g Cube (1)
v -80 -5.5 80
v -81 -5.5 80
v -80 18.5 80
v -81 18.5 80
v -81 -5.5 -80
v -81 18.5 -80
v -80 -5.5 -80
v -80 18.5 -80

vt 0.5 -12
vt -0.5 -12
vt 0.5 12
vt -0.5 12
vt 80 -12
vt -80 -12
vt 80 12
vt -80 12
vt -0.5 80
vt 0.5 80
vt -0.5 -80
vt 0.5 -80

vn 0 0 1
vn -1 0 0
vn 0 0 -1
vn 1 0 0
vn 0 1 0
vn 0 -1 0

usemtl Prototype_512x512_Grey3
f 109/159/82 110/160/82 108/158/82 107/157/82
f 110/163/83 112/164/83 111/162/83 108/161/83
f 112/159/84 114/160/84 113/158/84 111/157/84
f 114/163/85 109/164/85 107/162/85 113/161/85
f 114/167/86 112/168/86 110/166/86 109/165/86
f 107/166/87 108/165/87 111/167/87 113/168/87

g Cube (2)
v 81 -5.5 80
v 80 -5.5 80
v 81 18.5 80
v 80 18.5 80
v 80 -5.5 -80
v 80 18.5 -80
v 81 -5.5 -80
v 81 18.5 -80

vt 0.5 -12
vt -0.5 -12
vt 0.5 12
vt -0.5 12
vt 80 -12
vt -80 -12
vt 80 12
vt -80 12
vt -0.5 80
vt 0.5 80
vt -0.5 -80
vt 0.5 -80

vn 0 0 1
vn -1 0 0
vn 0 0 -1
vn 1 0 0
vn 0 1 0
vn 0 -1 0

usemtl Prototype_512x512_Grey3
f 117/171/88 118/172/88 116/170/88 115/169/88
f 118/175/89 120/176/89 119/174/89 116/173/89
f 120/171/90 122/172/90 121/170/90 119/169/90
f 122/175/91 117/176/91 115/174/91 121/173/91
f 122/179/92 120/180/92 118/178/92 117/177/92
f 115/178/93 116/177/93 119/179/93 121/180/93

g Cube (3)
v 80 -5.5 -80
v -80 -5.5 -80
v 80 18.5 -80
v -80 18.5 -80
v -80 -5.5 -81
v -80 18.5 -81
v 80 -5.5 -81
v 80 18.5 -81

vt 80 -12
vt -80 -12
vt 80 12
vt -80 12
vt 0.5 -12
vt -0.5 -12
vt 0.5 12
vt -0.5 12
vt -80 0.5
vt 80 0.5
vt -80 -0.5
vt 80 -0.5

vn 0 0 1
vn -1 0 0
vn 0 0 -1
vn 1 0 0
vn 0 1 0
vn 0 -1 0

usemtl Prototype_512x512_Grey3
f 125/183/94 126/184/94 124/182/94 123/181/94
f 126/187/95 128/188/95 127/186/95 124/185/95
f 128/183/96 130/184/96 129/182/96 127/181/96
f 130/187/97 125/188/97 123/186/97 129/185/97
f 130/191/98 128/192/98 126/190/98 125/189/98
f 123/190/99 124/189/99 127/191/99 129/192/99

g Cube (4)
v 80 -5.5 81
v -80 -5.5 81
v 80 18.5 81
v -80 18.5 81
v -80 -5.5 80
v -80 18.5 80
v 80 -5.5 80
v 80 18.5 80

vt 80 -12
vt -80 -12
vt 80 12
vt -80 12
vt 0.5 -12
vt -0.5 -12
vt 0.5 12
vt -0.5 12
vt -80 0.5
vt 80 0.5
vt -80 -0.5
vt 80 -0.5

vn 0 0 1
vn -1 0 0
vn 0 0 -1
vn 1 0 0
vn 0 1 0
vn 0 -1 0

usemtl Prototype_512x512_Grey3
f 133/195/100 134/196/100 132/194/100 131/193/100
f 134/199/101 136/200/101 135/198/101 132/197/101
f 136/195/102 138/196/102 137/194/102 135/193/102
f 138/199/103 133/200/103 131/198/103 137/197/103
f 138/203/104 136/204/104 134/202/104 133/201/104
f 131/202/105 132/201/105 135/203/105 137/204/105

